<?xml version="1.0" encoding="UTF-8" standalone="no"?>
<svg
   width="1000px"
   height="1000px"
   viewBox="0 0 1000 1000"
   zoomAndPan="disable"
   version="1.1"
   id="svg22"
   sodipodi:docname="overlay5.svg"
   inkscape:version="1.2 (dc2aedaf03, 2022-05-15)"
   xmlns:inkscape="http://www.inkscape.org/namespaces/inkscape"
   xmlns:sodipodi="http://sodipodi.sourceforge.net/DTD/sodipodi-0.dtd"
   xmlns="http://www.w3.org/2000/svg"
   xmlns:svg="http://www.w3.org/2000/svg">
  <defs
     id="defs26" />
  <sodipodi:namedview
     id="namedview24"
     pagecolor="#ffffff"
     bordercolor="#000000"
     borderopacity="0.25"
     inkscape:showpageshadow="2"
     inkscape:pageopacity="0.0"
     inkscape:pagecheckerboard="0"
     inkscape:deskcolor="#d1d1d1"
     showgrid="false"
     inkscape:zoom="0.837"
     inkscape:cx="499.40263"
     inkscape:cy="499.40263"
     inkscape:window-width="1920"
     inkscape:window-height="1017"
     inkscape:window-x="-8"
     inkscape:window-y="-8"
     inkscape:window-maximized="1"
     inkscape:current-layer="svg22" />
  <style
     type="text/css"
     id="style2"><![CDATA[
		.p-4 { fill: rgba(255,255,255,0.16); }
		.p-3 { fill: rgba(255,255,255,0.12); }
		.p-2 { fill: rgba(255,255,255,0.08); }
		.p-1 { fill: rgba(255,255,255,0.04); }
		.p0 { fill: none; }
		.p1 { fill: rgba(0,0,0,0.025); }
		.p2 { fill: rgba(0,0,0,0.05); }
		.p3 { fill: rgba(0,0,0,0.075); }
		.p4 { fill: rgba(0,0,0,0.1); }
    ]]></style>
  <polygon
     class="p-4"
     points="-375,1000 125,1000 -875,0 -1125,0 "
     id="polygon4"
     transform="rotate(90,-500,500)" />
  <polygon
     class="p-3"
     points="125,1000 375,1000 -625,0 -875,0 "
     id="polygon6"
     transform="rotate(90,-250,500)" />
  <polygon
     class="p-2"
     points="375,1000 625,1000 -375,0 -625,0 "
     id="polygon8"
     transform="rotate(90,0,500)" />
  <polygon
     class="p-1"
     points="625,1000 875,1000 -125,0 -375,0 "
     id="polygon10"
     transform="rotate(90,250,500)" />
  <polygon
     class="p0"
     points="875,1000 1125,1000 125,0 -125,0 "
     id="polygon12"
     transform="rotate(90,500,500)" />
  <polygon
     class="p1"
     points="1125,1000 1375,1000 375,0 125,0 "
     id="polygon14"
     transform="rotate(90,750,500)" />
  <polygon
     class="p2"
     points="1375,1000 1625,1000 625,0 375,0 "
     id="polygon16"
     transform="rotate(90,1000,500)" />
  <polygon
     class="p3"
     points="1625,1000 1875,1000 875,0 625,0 "
     id="polygon18"
     transform="rotate(90,1250,500)" />
  <polygon
     class="p4"
     points="1875,1000 2125,1000 1125,0 875,0 "
     id="polygon20"
     transform="rotate(90,1500,500)" />
</svg>
